PathFileType	4	(X/Y/Z)	C:/Users/opensim2020/Desktop/walking_exp_matlab/subject01_walking11_straight_01.trc																																																																																																																																		
DataRate	CameraRate	NumFrames	NumMarkers	Units	OrigDataRate	OrigDataStartFrame	OrigNumFrames																																																																																																																														
100	100	4	44	mm	100	1237	374																																																																																																																														
Frame#	Time	LFHD			RFHD			LBHD			RBHD			C7			T10			CLAV			STRN			RBAK			LSHO			LUPA			LELB			LFRM			LWRA			LWRB			LFIN			RSHO			RUPA			RELB			RFRM			RWRA			RWRB			RFIN			LASI			RASI			LPSI			RPSI			LTHI			LKNE			LTIB			LANK			LHEE			LTOE			RTHI			RKNE			RTIB			RANK			RHEE			RTOE			*39			*40			*41			*42			*43		
		X1	Y1	Z1	X2	Y2	Z2	X3	Y3	Z3	X4	Y4	Z4	X5	Y5	Z5	X6	Y6	Z6	X7	Y7	Z7	X8	Y8	Z8	X9	Y9	Z9	X10	Y10	Z10	X11	Y11	Z11	X12	Y12	Z12	X13	Y13	Z13	X14	Y14	Z14	X15	Y15	Z15	X16	Y16	Z16	X17	Y17	Z17	X18	Y18	Z18	X19	Y19	Z19	X20	Y20	Z20	X21	Y21	Z21	X22	Y22	Z22	X23	Y23	Z23	X24	Y24	Z24	X25	Y25	Z25	X26	Y26	Z26	X27	Y27	Z27	X28	Y28	Z28	X29	Y29	Z29	X30	Y30	Z30	X31	Y31	Z31	X32	Y32	Z32	X33	Y33	Z33	X34	Y34	Z34	X35	Y35	Z35	X36	Y36	Z36	X37	Y37	Z37	X38	Y38	Z38	X39	Y39	Z39	X40	Y40	Z40	X41	Y41	Z41	X42	Y42	Z42	X43	Y43	Z43	X44	Y44	Z44
																																																																																																																																					
328	3.27	702.45819	1681.42639	1323.15906	730.4339	1691.80908	1432.63672	597.91479	1617.12988	1348.60852	625.51678	1626.46533	1465.01697	592.16498	1434.96985	1385.20801	558.27441	1143.94226	1399.99377	736.87573	1370.13672	1380.13098	780.71307	1213.39746	1376.71582	540.90137	1243.94336	1468.38708	669.76794	1396.05615	1222.38379	648.19604	1209.86218	1140.8136	644.38293	1059.18494	1141.65527	690.28632	955.58917	1115.29443	778.14075	846.52679	1131.58984	723.62939	838.09991	1107.17505	777.43378	772.17084	1096.77429	677.92407	1400.8634	1532.74182	627.19849	1203.04651	1639.42419	632.69696	1078.38147	1645.82471	668.61212	963.65033	1678.57837	756.07977	852.64929	1660.99341	713.62177	851.2699	1701.16431	756.3443	775.79315	1698.78027	726.17981	936.3938	1290.77661	729.19104	935.50073	1507.15466	538.82648	950.19257	1347.48096	545.25244	948.82642	1493.01306	721.39728	606.51111	1243.85266	726.4386	472.97137	1266.25195	685.37024	286.07462	1263.46899	670.5968	72.30862	1327.08398	628.69415	42.21282	1383.02649	815.35284	40.46991	1310.76721	738.44757	607.12524	1576.70984	765.50781	452.18399	1559.35083	625.81989	345.2691	1564.55151	484.6199	195.56879	1521.97693	425.83386	192.25978	1467.36243	556.13519	73.03236	1529.25537	709.53241	1722.48621	1412.54675	1973.13684	1023.44965	-3101.88965	2012.54431	1022.04114	-3140.88184	NaN	NaN	NaN	NaN	NaN	NaN
329	3.28	708.57324	1681.90051	1322.12476	736.63983	1692.10498	1431.50476	603.8504	1617.72498	1347.60254	631.62085	1626.95825	1463.97498	597.79407	1435.35828	1384.00769	563.68756	1144.47754	1398.94055	742.5188	1370.57239	1378.92615	786.31171	1213.80603	1375.41602	546.54376	1244.43469	1467.28113	675.41046	1396.61951	1221.22278	654.50098	1210.54956	1139.46375	651.96558	1059.66406	1139.89661	698.72955	956.66486	1113.45044	788.0542	848.80023	1129.05542	733.34314	839.59882	1105.26953	787.94214	774.40295	1094.45386	683.61011	1401.34106	1531.62097	632.37335	1203.53027	1638.10864	637.65283	1078.82532	1644.29895	672.95288	963.94806	1677.06128	759.96814	852.53125	1659.61243	717.44501	851.44702	1699.80859	759.68115	775.48059	1697.17517	731.08136	936.65033	1289.0719	734.96619	936.52069	1505.44531	543.99799	950.56287	1346.81982	551.07867	949.92792	1492.70776	724.21198	606.20532	1243.09729	728.28705	472.62656	1265.54492	685.86823	286.02472	1263.31665	670.38818	72.0257	1327.08325	628.51392	42.11703	1382.9248	815.33527	40.38073	1310.73413	748.10376	608.71753	1575.25623	777.21582	454.59509	1557.71057	639.44641	345.4458	1562.9967	501.07089	192.67329	1520.43738	442.0278	187.53793	1465.90015	576.30743	72.41444	1527.75366	715.78412	1722.81189	1411.43335	1973.21655	1023.65826	-3101.84985	2012.51855	1022.03314	-3140.62793	NaN	NaN	NaN	NaN	NaN	NaN
330	3.29	714.60187	1682.22961	1321.05334	742.8244	1692.38257	1430.41602	609.81488	1618.22461	1346.5929	637.72491	1627.3689	1462.97412	603.51868	1435.79553	1382.93225	569.3678	1144.8894	1397.85779	748.20923	1370.98511	1377.74927	791.91815	1214.18701	1374.04944	552.16766	1244.94495	1466.22412	680.97174	1397.18176	1220.08325	660.66644	1211.1748	1138.15027	659.23975	1060.37122	1138.54468	707.03467	957.78894	1111.70703	797.84589	851.07007	1126.67505	743.01819	841.15588	1103.48572	798.34631	776.59137	1092.17615	689.32782	1401.75537	1530.44861	637.6991	1203.98743	1636.89001	642.64362	1079.2959	1642.88257	677.35327	964.25684	1675.68408	763.8526	852.36487	1658.2854	721.29633	851.43054	1698.29321	762.99304	775.19061	1695.6272	736.03375	936.8396	1287.51477	740.68317	937.40393	1503.72729	549.32928	950.87421	1346.14148	556.8559	950.31158	1491.9292	726.87842	605.91046	1242.31311	730.03699	472.33182	1264.78809	686.39215	285.95084	1263.1842	670.28912	72.00053	1327.14624	628.54907	42.14056	1383.00256	815.39313	40.23867	1310.63977	757.91339	610.62604	1573.77344	788.64722	456.88922	1555.94836	652.91266	344.89844	1561.1134	517.95605	188.93587	1518.77112	458.97467	182.48431	1464.68188	597.1709	71.45624	1526.3551	721.93793	1723.00781	1410.24438	1973.06287	1023.79968	-3101.95703	2012.45215	1022.00018	-3140.74536	NaN	NaN	NaN	NaN	NaN	NaN
331	3.3	720.4895	1682.53357	1319.97192	748.93195	1692.61682	1429.37097	616.06439	1618.64514	1345.76868	643.7926	1627.74731	1461.96899	609.30048	1436.2356	1381.8512	574.85388	1145.37024	1396.771	753.89148	1371.39233	1376.58325	797.60059	1214.58289	1372.78223	557.87164	1245.36401	1465.13586	686.61017	1397.73572	1218.93115	666.70563	1211.83997	1136.82007	666.47577	1060.97412	1137.01367	715.32764	958.92242	1109.99817	807.51904	853.2666	1124.36853	752.67181	842.66388	1101.74976	808.56964	778.7489	1089.91516	695.11603	1402.11694	1529.31714	643.03058	1204.41406	1635.70447	647.65417	1079.6908	1641.5304	681.7749	964.51984	1674.31177	767.84424	852.22253	1656.9762	725.13782	851.44403	1696.89832	766.50433	774.91724	1694.12085	740.99408	936.97028	1286.06555	746.3645	938.19299	1502.12048	554.67444	951.14795	1345.47913	562.67377	950.93719	1491.41101	729.3866	605.58679	1241.42603	731.57452	472.04156	1264.20117	686.95776	285.95844	1263.02563	670.24103	72.04178	1327.16589	628.52649	42.15837	1383.01709	815.43066	40.11796	1310.56396	766.60876	612.3053	1572.06897	799.89075	458.88773	1553.76953	666.62683	343.88699	1559.23401	535.47235	184.713	1517.12769	476.59528	176.29164	1463.15417	618.62909	70.23178	1525.06958	728.15314	1723.43408	1409.41284	1973.10205	1023.30719	-3101.98242	2012.50049	1022.0495	-3140.64746	NaN	NaN	NaN	NaN	NaN	NaN
